<svg xmlns="http://www.w3.org/2000/svg" width="1365" height="308" viewBox="0 0 1365 308" role="img" aria-label="menuverso"><path d="M216.70 102.40Q211.90 102.70 205 108.55Q198.10 114.40 190.15 123.55Q182.20 132.70 173.65 143.80Q165.10 154.90 157.15 165.85Q149.20 176.80 142.30 186.40Q135.40 196 130.60 201.70Q124 199 119.20 193.75Q114.40 188.50 112.30 180.70Q113.80 171.40 116.50 161.35Q119.20 151.30 123.55 140.50Q127.90 129.70 134.35 117.85Q140.80 106 150.10 92.80Q145.60 93.10 137.80 99.25Q130 105.40 121 115.15Q112 124.90 102.40 137.05Q92.80 149.20 84.40 160.90Q73.30 176.50 65.95 188.20Q58.60 199.90 55.30 202Q47.50 196.30 44.50 189.70Q41.50 183.10 40 175Q40.30 167.80 42.25 157Q44.20 146.20 47.80 134.80Q54.70 112.90 65.65 91.30Q76.60 69.70 86.80 51.70Q95.20 53.50 101.95 57.40Q108.70 61.30 116.20 68.80Q113.20 78.10 106.90 88.45Q100.60 98.80 93.70 110.20Q86.80 121.60 81.10 133.60Q75.40 145.60 73.60 157.90Q82 145.90 93.55 130.30Q105.10 114.70 117.25 100.90Q129.40 87.10 141.40 77.50Q153.40 67.90 163 67.90Q166.60 67.90 170.80 69.10Q175 70.30 178.60 72.10Q182.20 73.90 184.60 75.55Q187 77.20 187.30 78.10Q185.80 84.10 180.25 94.45Q174.70 104.80 168.40 116.20Q162.10 127.60 156.70 138.25Q151.30 148.90 150.40 155.20Q165.10 135.10 178 118.75Q190.90 102.40 202.30 90.70Q213.70 79 223.45 72.70Q233.20 66.40 241.90 66.40Q247.90 66.40 253.15 69.55Q258.40 72.70 260.50 78.70Q257.80 87.70 251.65 100.30Q245.50 112.90 239.20 126.85Q232.90 140.80 227.95 154.30Q223 167.80 223 178.60Q223 184.90 224.80 186.85Q226.60 188.80 229.90 188.80Q233.50 188.80 236.65 187.45Q239.80 186.10 241.30 186.10Q243.10 187.30 243.40 189.10Q243.70 190.90 243.70 192.40Q237.70 197.20 231.40 200.35Q225.10 203.50 217.30 203.50Q210.10 203.50 205.45 201.10Q200.80 198.70 197.80 194.50Q194.80 190.30 193.60 184.90Q192.40 179.50 192.40 173.20Q192.40 163 195.10 152.95Q197.80 142.90 201.55 133.75Q205.30 124.60 209.50 116.65Q213.70 108.70 216.70 102.40M380.20 70.30Q379 88.90 373.60 102.25Q368.20 115.60 358.15 125.65Q348.10 135.70 333.70 143.80Q319.30 151.90 300.10 159.40Q300.10 161.20 299.95 163.15Q299.80 165.10 299.80 167.20Q299.80 171.10 300.40 175.30Q301 179.50 302.50 183.10Q304 186.70 306.70 188.95Q309.40 191.20 313.60 191.20Q321.70 191.20 329.50 187.60Q337.30 184 344.35 178.75Q351.40 173.50 357.55 167.35Q363.70 161.20 368.50 156.10Q371.50 158.80 373.60 161.20Q360.10 179.20 344.05 191.05Q328 202.90 313.60 206.20Q292.90 203.80 281.35 191.05Q269.80 178.30 269.80 160.30Q269.80 148 273.25 135.25Q276.70 122.50 282.85 110.65Q289 98.80 297.25 88.30Q305.50 77.80 314.95 70Q324.40 62.20 334.45 57.70Q344.50 53.20 354.40 53.20Q368.20 55 380.20 70.30M359.50 80.20Q351.40 81.40 342.70 86.80Q334 92.20 326.35 101.20Q318.70 110.20 312.40 122.20Q306.10 134.20 302.50 148Q326.50 136 342.40 118.45Q358.30 100.90 359.50 80.20M442.60 49Q450.40 51.40 457.30 59.65Q464.20 67.90 467.50 77.80Q464.20 85.90 457.30 97.30Q450.40 108.70 443.50 120.55Q436.60 132.40 431.05 143.05Q425.50 153.70 424.60 160.60Q429.40 155.50 435.25 148.75Q441.10 142 446.65 135.25Q452.20 128.50 457 122.95Q461.80 117.40 464.50 114.70Q470.20 108.70 478 100.75Q485.80 92.80 494.35 85.75Q502.90 78.70 511.60 73.75Q520.30 68.80 527.50 68.80Q535.30 68.80 540.55 74.05Q545.80 79.30 548.80 85Q548.80 85.60 546.55 86.65Q544.30 87.70 540.10 92.50Q535.90 97.90 530.65 107.35Q525.40 116.80 520.45 127.75Q515.50 138.70 512.20 150.10Q508.90 161.50 508.90 170.80Q508.90 178.30 510.85 180.40Q512.80 182.50 516.40 182.50Q519.70 182.50 523.30 181Q526.90 179.50 529 179.50Q530.20 180.10 530.95 182.05Q531.70 184 531.70 185.50Q529.30 187.60 526 189.70Q522.70 191.80 519.10 193.60Q515.50 195.40 512.05 196.60Q508.60 197.80 505.90 197.80Q497.20 197.80 491.65 195.25Q486.10 192.70 482.95 188.50Q479.80 184.30 478.60 178.45Q477.40 172.60 477.40 166Q477.40 162.40 478 157.90Q478.60 153.40 480.40 147.25Q482.20 141.10 485.50 132.55Q488.80 124 493.90 112Q493.30 112 485.80 116.20Q478.30 120.40 469.60 129.10Q455.50 142.60 444.25 155.80Q433 169 421.30 185.20Q414.70 194.50 409.75 200.95Q404.80 207.40 401.20 209.50Q394.90 205.90 391.90 199.45Q388.90 193 387.40 186.10Q387.40 180.40 389.05 171.70Q390.70 163 393.55 152.35Q396.40 141.70 400.60 130Q404.80 118.30 409.90 106.60Q421.30 80.20 430.75 65.20Q440.20 50.20 442.60 49M637.60 187.90Q631.90 183.10 629.95 175.90Q628 168.70 628 163.60Q628 157.30 629.50 152.80Q628.30 152.80 624.10 157.60Q619.90 162.40 614.95 169Q610 175.60 605.20 181.90Q600.40 188.20 598 191.20Q594.10 195.40 590.65 197.80Q587.20 200.20 585.10 200.50Q580.30 200.20 575.05 198.55Q569.80 196.90 565.15 193.90Q560.50 190.90 557.05 186.70Q553.60 182.50 552.40 177.10Q552.40 168.70 552.85 163.30Q553.30 157.90 554.80 151.60Q557.50 140.20 562.75 125.80Q568 111.40 574.90 97.45Q581.80 83.50 590.35 71.35Q598.90 59.20 608.50 52.30Q611.20 52.30 614.80 52.75Q618.40 53.20 622.15 54.40Q625.90 55.60 629.35 57.25Q632.80 58.90 635.20 61.60Q632.50 64.60 621.55 81.70Q610.60 98.80 597.10 130.90Q595.60 134.20 593.50 140.50Q591.40 146.80 589.30 153.70Q587.20 160.60 585.85 167.20Q584.50 173.80 584.50 177.70Q584.50 180.10 585.25 181.30Q586 182.50 586.60 183.10Q591.10 181.30 598 173.20Q604.90 165.10 617.20 148.30Q620.20 144.10 624.25 138.70Q628.30 133.30 632.50 127.15Q636.70 121 640.45 114.40Q644.20 107.80 646.60 101.20Q647.80 97.60 649.75 92.65Q651.70 87.70 654.55 82.30Q657.40 76.90 661.15 71.35Q664.90 65.80 670 61Q673.90 61 678.40 61.90Q682.90 62.80 686.95 64.15Q691 65.50 694 67.15Q697 68.80 698.50 70.60Q693.10 83.80 686.50 96.70Q679.90 109.60 674.20 122.05Q668.50 134.50 664.60 146.80Q660.70 159.10 660.70 170.80Q660.70 177.10 661.75 181.75Q662.80 186.40 664 189.55Q665.20 192.70 666.25 194.80Q667.30 196.90 667.30 198.40Q667.30 198.70 666.70 199.30Q666.40 199.60 666.10 199.60Q664 199.60 660.70 198.70Q657.40 197.80 653.35 196.15Q649.30 194.50 645.25 192.40Q641.20 190.30 637.60 187.90M719.20 88.30Q719.20 82.90 719.95 78.10Q720.70 73.30 723.10 69.85Q725.50 66.40 729.70 64.45Q733.90 62.50 740.80 62.50Q745 62.50 750.25 63.40Q755.50 64.30 757.90 66.70Q756.70 71.80 755.95 75.70Q755.20 79.60 754.75 84.25Q754.30 88.90 754 95.35Q753.70 101.80 753.40 112Q752.80 132.40 751.45 148.45Q750.10 164.50 745.30 180.40Q745.30 181.60 746.20 181.60Q750.70 178.30 756.40 172Q762.10 165.70 768.40 157.75Q774.70 149.80 781 140.80Q787.30 131.80 792.70 123.10Q799.90 110.50 808.60 91.60Q817.30 72.70 823 51.10Q824.80 51.10 827.65 51.85Q830.50 52.60 833.35 53.65Q836.20 54.70 838.45 55.90Q840.70 57.10 841.60 58Q841 70.90 835.45 84.40Q829.90 97.90 822.10 110.50Q814.30 123.10 805.60 134.20Q796.90 145.30 789.70 153.40Q775.30 170.20 760.75 183.40Q746.20 196.60 726.10 208.90Q718.30 205.90 713.80 200.95Q709.30 196 709.30 190.60Q709.30 187 710.95 182.35Q712.60 177.70 714.70 170.35Q716.80 163 718.45 151.90Q720.10 140.80 720.10 123.70Q720.10 113.80 719.65 103.75Q719.20 93.70 719.20 88.30M944.50 70.30Q943.30 88.90 937.90 102.25Q932.50 115.60 922.45 125.65Q912.40 135.70 898 143.80Q883.60 151.90 864.40 159.40Q864.40 161.20 864.25 163.15Q864.10 165.10 864.10 167.20Q864.10 171.10 864.70 175.30Q865.30 179.50 866.80 183.10Q868.30 186.70 871 188.95Q873.70 191.20 877.90 191.20Q886 191.20 893.80 187.60Q901.60 184 908.65 178.75Q915.70 173.50 921.85 167.35Q928 161.20 932.80 156.10Q935.80 158.80 937.90 161.20Q924.40 179.20 908.35 191.05Q892.30 202.90 877.90 206.20Q857.20 203.80 845.65 191.05Q834.10 178.30 834.10 160.30Q834.10 148 837.55 135.25Q841 122.50 847.15 110.65Q853.30 98.80 861.55 88.30Q869.80 77.80 879.25 70Q888.70 62.20 898.75 57.70Q908.80 53.20 918.70 53.20Q932.50 55 944.50 70.30M923.80 80.20Q915.70 81.40 907 86.80Q898.30 92.20 890.65 101.20Q883 110.20 876.70 122.20Q870.40 134.20 866.80 148Q890.80 136 906.70 118.45Q922.60 100.90 923.80 80.20M951.10 188.50Q952.60 179.80 956.35 165.55Q960.10 151.30 965.20 135.25Q970.30 119.20 976 103Q981.70 86.80 987.10 73.90Q991 64.60 994 59.35Q997 54.10 1000.60 50.50Q1004.80 51.10 1009.30 52.60Q1013.80 54.10 1018 56.20Q1022.20 58.30 1025.50 60.55Q1028.80 62.80 1030.60 64.90Q1022.50 74.50 1016.35 86.80Q1010.20 99.10 1003.90 118.30Q1020.10 103.90 1032.55 90.70Q1045 77.50 1055.80 61.30Q1057.60 59.80 1062.10 59.80Q1066.30 59.80 1070.20 61.15Q1074.10 62.50 1075.60 64.90Q1070.20 79.30 1070.20 93.40Q1070.20 106.60 1074.10 113.20Q1073.80 115 1070.05 120.10Q1066.30 125.20 1061.80 129.70Q1053.70 125.50 1047.40 118.15Q1041.10 110.80 1038.10 102.10Q1024 112 1014.10 121.45Q1004.20 130.90 997.15 142.45Q990.10 154 985.15 169Q980.20 184 975.70 204.70Q973 204.40 969.25 202.75Q965.50 201.10 961.75 198.70Q958 196.30 955 193.60Q952 190.90 951.10 188.50M1177.90 75.10Q1177.60 80.80 1175.95 86.95Q1174.30 93.10 1171.90 98.05Q1169.50 103 1166.80 106.30Q1164.10 109.60 1161.70 109.60Q1158.40 109.30 1157.80 105.10Q1157.80 104.20 1158.55 102.25Q1159.30 100.30 1160.20 97.90Q1161.10 95.50 1161.85 93.10Q1162.60 90.70 1162.60 88.90Q1162.60 84.70 1160.65 81.85Q1158.70 79 1155.40 79Q1143.40 79 1137.10 94Q1130.80 109 1130.80 138.10Q1130.80 141.10 1131.10 141.70Q1137.40 141.40 1142.35 141.25Q1147.30 141.10 1152.10 141.10Q1152.40 141.70 1152.40 143.50Q1152.40 146.20 1151.20 147.40Q1144.30 148.90 1140.25 149.95Q1136.20 151 1134.10 151.90Q1132 152.80 1131.55 153.85Q1131.10 154.90 1131.10 156.70Q1131.10 159.10 1131.25 161.50Q1131.40 163.90 1131.40 167.50Q1131.40 192.70 1117.75 208Q1104.10 223.30 1079.80 225.70Q1075.60 225.40 1071.10 223.30Q1066.60 221.20 1062.55 217.90Q1058.50 214.60 1055.50 210.55Q1052.50 206.50 1051.30 202.30Q1051.30 190.90 1056.10 180.55Q1060.90 170.20 1069.15 162.25Q1077.40 154.30 1088.65 149.35Q1099.90 144.40 1113.10 143.50Q1113.10 136 1111.60 128.80Q1110.10 121.60 1108.45 114.85Q1106.80 108.10 1105.30 101.65Q1103.80 95.20 1103.80 88.90Q1103.80 80.80 1107.10 72.85Q1110.40 64.90 1115.80 58.15Q1121.20 51.40 1128.40 46.60Q1135.60 41.80 1143.40 40Q1146.70 40.90 1152.25 45.25Q1157.80 49.60 1163.20 55Q1168.60 60.40 1172.80 65.95Q1177 71.50 1177.90 75.10M1078.90 211.90Q1086.10 208.90 1092.55 203.20Q1099 197.50 1103.80 190.30Q1108.60 183.10 1111.45 175Q1114.30 166.90 1114.30 159.10Q1108.30 160 1101.10 164.65Q1093.90 169.30 1087.60 175.75Q1081.30 182.20 1077.10 189.10Q1072.90 196 1072.90 201.10Q1072.90 207.70 1078.90 211.90M1213.60 205Q1196.50 203.20 1186.30 190Q1176.10 176.80 1176.10 156.40Q1176.10 144.40 1179.70 131.50Q1183.30 118.60 1189.90 106.45Q1196.50 94.30 1205.50 83.50Q1214.50 72.70 1225 64.90Q1241.50 52.60 1255.90 52.60Q1265.50 57.70 1274.80 73.90Q1276.30 73.90 1277.50 73.75Q1278.70 73.60 1280.20 73.60Q1296.10 73.60 1296.10 101.80Q1296.10 120.70 1289.95 137.65Q1283.80 154.60 1272.85 168.40Q1261.90 182.20 1246.75 191.65Q1231.60 201.10 1213.60 205M1228.90 110.50Q1223.80 117.40 1219.30 125.50Q1214.80 133.60 1211.50 141.85Q1208.20 150.10 1206.40 157.75Q1204.60 165.40 1204.60 171.40Q1204.60 178.60 1207 185.20Q1209.40 191.80 1212.40 192.70Q1225.90 189.70 1237.15 181.45Q1248.40 173.20 1256.65 160.90Q1264.90 148.60 1269.55 133Q1274.20 117.40 1274.20 99.70Q1274.20 91.90 1273.30 87.40Q1272.40 82.90 1270.30 79.60Q1257.10 83.50 1246.75 92.20Q1236.40 100.90 1228.90 110.50" fill="#F4291A"/><polygon points="48,267.7 76,241.7 1231.612,241.7 1203.612,267.7" fill="#F4291A"/></svg>